<svg width="24" height="16" viewBox="0 0 24 16" fill="none" xmlns="http://www.w3.org/2000/svg">
<path d="M14.3781 1.46426C14.0049 1.14328 13.4251 0.982539 12.638 0.982539C12.2485 0.982539 11.859 1.01785 11.4696 1.08738C11.0795 1.1576 10.7524 1.25011 10.4872 1.36559C10.3879 1.40717 10.3212 1.45004 10.2881 1.4953C10.255 1.54065 10.2381 1.62132 10.2381 1.73621V2.06963C10.2381 2.21793 10.2918 2.29243 10.3998 2.29243C10.436 2.29193 10.4718 2.28565 10.5059 2.27383C10.5433 2.2614 10.5746 2.25145 10.5989 2.2428C11.2374 2.05341 11.8459 1.95842 12.4264 1.95842C12.9232 1.95842 13.2715 2.04914 13.4706 2.23096C13.6697 2.41229 13.769 2.72522 13.769 3.17034V3.98608C13.1891 3.84583 12.6667 3.7762 12.2023 3.7762C11.4733 3.7762 10.8935 3.95564 10.4623 4.31392C10.0315 4.67211 9.81561 5.15264 9.81561 5.75422C9.81561 6.31542 9.98971 6.76183 10.338 7.09585C10.6857 7.42986 11.1581 7.59617 11.7548 7.59617C12.1112 7.59617 12.4695 7.52605 12.8302 7.38639C13.191 7.24674 13.5199 7.048 13.8182 6.79287L13.8807 7.20069C13.9057 7.35725 13.9967 7.43543 14.1547 7.43543H14.689C14.8544 7.43543 14.938 7.35287 14.938 7.18835V2.96046C14.9374 2.28438 14.7508 1.78584 14.3781 1.46426ZM13.769 6.03979C13.4956 6.24589 13.2097 6.40236 12.9114 6.50978C12.613 6.61721 12.3272 6.67062 12.0538 6.67062C11.7305 6.67062 11.4821 6.58607 11.3079 6.41728C11.1338 6.24838 11.047 6.00747 11.047 5.69404C11.047 4.97688 11.5152 4.6181 12.4514 4.6181C12.6667 4.6181 12.8883 4.63302 13.1161 4.66157C13.3439 4.69071 13.5617 4.7299 13.769 4.77894V6.03979ZM8.77261 2.86428C8.65221 2.46441 8.48061 2.12423 8.25651 1.84423C8.03301 1.56423 7.75961 1.34938 7.43631 1.20107C7.11361 1.05266 6.75291 0.97876 6.35471 0.97876C5.98201 0.97876 5.61691 1.04839 5.26111 1.18864C4.90481 1.32889 4.56901 1.53508 4.25381 1.80693L4.19201 1.41085C4.16701 1.24633 4.07151 1.16377 3.90551 1.16377H3.35871C3.19331 1.16377 3.11031 1.24633 3.11031 1.41085V9.73255C3.11031 9.89767 3.19331 9.97963 3.35871 9.97963H4.09211C4.25811 9.97963 4.34051 9.89707 4.34051 9.73255V6.83942C4.87921 7.32552 5.52151 7.56892 6.26731 7.56892C6.67302 7.56892 7.04191 7.48825 7.37331 7.32801C7.70471 7.16727 7.98621 6.94247 8.21831 6.65381C8.45061 6.36575 8.63091 6.01562 8.75891 5.60273C8.88751 5.19054 8.95181 4.72861 8.95181 4.21764C8.95301 3.71533 8.89251 3.26404 8.77261 2.86428ZM5.98201 6.57931C5.41781 6.57931 4.87102 6.38187 4.34111 5.98578V2.53643C4.86292 2.15716 5.41842 1.96777 6.00711 1.96777C7.13421 1.96777 7.69781 2.73885 7.69781 4.27971C7.69722 5.81321 7.12551 6.57931 5.98201 6.57931ZM18.9825 8.53187L21.7175 1.6077C21.775 1.46745 21.8043 1.36867 21.8043 1.31088C21.8043 1.21221 21.7463 1.16258 21.6302 1.16258H20.9342C20.8013 1.16258 20.7108 1.18366 20.6602 1.22464C20.6103 1.26622 20.561 1.35694 20.5111 1.49719L18.8327 6.29433L17.0926 1.49719C17.0426 1.35694 16.9933 1.26622 16.9434 1.22464C16.8934 1.18366 16.8024 1.16258 16.6694 1.16258H15.9235C15.8075 1.16258 15.7494 1.21221 15.7494 1.31088C15.7494 1.36858 15.7781 1.46735 15.8362 1.6077L18.2354 7.49322L17.9994 8.12395C17.8584 8.52003 17.7011 8.79198 17.527 8.94038C17.3529 9.08869 17.1082 9.1626 16.7936 9.1626C16.6526 9.1626 16.5408 9.15394 16.4584 9.13773C16.3754 9.12161 16.313 9.11286 16.2718 9.11286C16.1476 9.11286 16.0852 9.19114 16.0852 9.34761V9.66919C16.0852 9.78467 16.1058 9.86912 16.1476 9.92253C16.1888 9.97585 16.255 10.0156 16.3467 10.0399C16.5533 10.097 16.7899 10.1267 17.0551 10.1267C17.5276 10.1267 17.9108 10.0032 18.2048 9.75552C18.5 9.50904 18.7591 9.10053 18.9825 8.53187ZM21.6938 12.9316C19.0662 14.8606 15.2569 15.8862 11.9764 15.8862C7.37891 15.8862 3.23891 14.1957 0.106315 11.382C-0.139685 11.1611 0.0794148 10.8593 0.375315 11.0307C3.75511 12.9869 7.93501 14.1652 12.2523 14.1652C15.1646 14.1652 18.3659 13.5643 21.3119 12.3214C21.7556 12.1333 22.1281 12.6119 21.6938 12.9316ZM22.7867 11.69C23.1231 12.1184 22.4129 13.8823 22.0957 14.67C21.9997 14.9084 22.2057 15.0047 22.4228 14.824C23.8322 13.6513 24.1967 11.1934 23.9083 10.8382C23.6218 10.4862 21.1577 10.1832 19.6535 11.2337C19.4219 11.3952 19.4619 11.6187 19.7184 11.5875C20.5654 11.4871 22.4509 11.2617 22.7867 11.69Z" fill="#FF9900"/>
</svg>
