<?xml version="1.0" standalone="no"?>
<!DOCTYPE svg PUBLIC "-//W3C//DTD SVG 20010904//EN"
 "http://www.w3.org/TR/2001/REC-SVG-20010904/DTD/svg10.dtd">
<svg version="1.0" xmlns="http://www.w3.org/2000/svg"
 width="512.000000pt" height="512.000000pt" viewBox="0 0 512.000000 512.000000"
 preserveAspectRatio="xMidYMid meet">

<g transform="translate(0.000000,512.000000) scale(0.100000,-0.100000)"
fill="#000000" stroke="none">
<path d="M2375 5110 c-796 -63 -1500 -473 -1939 -1130 -290 -433 -430 -899
-429 -1425 1 -234 20 -398 72 -610 133 -541 453 -1040 891 -1391 348 -279 766
-460 1230 -531 162 -25 558 -25 720 0 814 125 1482 590 1883 1312 293 526 385
1181 251 1785 -232 1043 -1109 1844 -2164 1975 -150 18 -389 25 -515 15z m279
-555 c45 -24 54 -25 232 -25 203 0 198 2 170 -64 -17 -41 -58 -74 -101 -82
-26 -5 -34 -12 -39 -36 -14 -72 -78 -118 -163 -118 -31 0 -65 -9 -97 -25 -32
-16 -66 -25 -96 -25 -30 0 -64 9 -96 25 -32 16 -66 25 -97 25 -86 0 -149 46
-163 119 -4 17 -13 31 -21 31 -34 0 -94 42 -113 80 -37 72 -42 70 164 70 178
0 187 1 232 25 31 16 63 25 94 25 31 0 63 -9 94 -25z m490 -510 c206 -36 245
-84 246 -295 0 -144 -15 -219 -60 -292 l-30 -48 0 -259 0 -259 -30 -85 c-59
-168 -129 -302 -221 -423 l-49 -65 0 -175 0 -175 70 -80 c39 -43 70 -84 70
-89 0 -23 -106 -294 -156 -397 -55 -115 -116 -193 -150 -193 -13 0 -35 -25
-66 -73 -105 -160 -176 -231 -219 -220 -33 9 -102 85 -178 197 -58 85 -77 106
-96 106 -33 0 -76 56 -134 175 -41 83 -132 315 -155 390 -4 15 12 41 64 102
l70 81 0 177 0 177 -34 41 c-89 111 -185 290 -240 449 -25 75 -26 82 -26 336
l0 260 -34 57 c-45 74 -56 129 -56 283 0 113 3 133 23 172 32 64 85 97 192
120 81 17 140 19 601 19 415 1 528 -2 598 -14z m-1474 -796 c0 -204 -3 -209
-58 -96 -38 76 -56 156 -49 209 7 53 22 68 68 68 l39 0 0 -181z m1878 156 c29
-63 0 -197 -62 -295 l-35 -55 -1 188 0 187 43 0 c37 0 46 -4 55 -25z"/>
</g>
</svg>
