<svg width="25" height="24" viewBox="0 0 25 24" fill="none" xmlns="http://www.w3.org/2000/svg">
<path d="M12.5 3C7.5125 3 3.5 7.0125 3.5 12C3.5 16.9875 7.5125 21 12.5 21C17.4875 21 21.5 16.9875 21.5 12C21.5 7.0125 17.4875 3 12.5 3ZM4.625 12C4.625 7.65 8.15 4.125 12.5 4.125C14.45 4.125 16.25 4.8375 17.6375 6.0375L13.925 9.7125L12.6875 7.35C12.6125 7.2 12.575 7.0875 12.425 7.0875H11.9C11.5625 7.0875 11.6 7.1625 11.6375 7.35L12.3875 10.6875V11.25L11.8625 11.2875C11.225 11.2875 10.475 11.4 9.875 11.5875L9.0125 10.275C8.8625 10.05 8.9 10.0125 8.75 10.0125C8.4125 10.0125 8.45 10.05 8.4875 10.275L8.75 11.85C8.75 11.8875 8.75 11.925 8.7875 11.9625C8.75 12 8.7125 12 8.7125 12.0375C8.7125 12.075 8.75 12.1125 8.825 12.15C8.75 12.1875 8.7125 12.2625 8.7125 12.375L8.45 13.95C8.4125 14.175 8.375 14.2125 8.7125 14.2125C8.8625 14.2125 8.825 14.175 8.975 13.95L9.9125 12.5625C10.2125 12.6375 10.5125 12.7125 10.85 12.7875L6.5 17.1C5.3375 15.7125 4.625 13.95 4.625 12ZM12.5 19.875C10.5125 19.875 8.675 19.125 7.2875 17.8875L12.3125 12.9H12.3875V13.4625L11.5625 16.8C11.525 16.9875 11.4875 17.0625 11.825 17.0625H12.35C12.5 17.0625 12.5375 16.95 12.6125 16.8L14.6375 13.125L15.65 13.2H15.8C16.3625 13.2 17.9 12.75 17.9 12.1875C17.9 11.625 16.4 11.1375 15.8 11.1H15.65L14.6375 11.1375L14.45 10.7625L18.425 6.825C19.625 8.2125 20.375 10.0125 20.375 12C20.375 16.35 16.85 19.875 12.5 19.875Z" fill="#D0D9DF"/>
</svg>
