<svg width="114" height="40" viewBox="0 0 114 40" fill="none" xmlns="http://www.w3.org/2000/svg">
<rect x="0.25" y="0.25" width="113.5" height="39.5" rx="3.75" fill="#F1F3F6" fill-opacity="0.15"/>
<path fill-rule="evenodd" clip-rule="evenodd" d="M25 17C25 16.2043 25.3161 15.4413 25.8787 14.8787C26.4413 14.316 27.2044 14 28 14C28.7956 14 29.5587 14.316 30.1213 14.8787C30.6839 15.4413 31 16.2043 31 17C31 17.7956 30.6839 18.5587 30.1213 19.1213C29.5587 19.6839 28.7956 20 28 20C27.2044 20 26.4413 19.6839 25.8787 19.1213C25.3161 18.5587 25 17.7956 25 17ZM31.291 20.764C32.057 20.0943 32.6004 19.2069 32.8488 18.2202C33.0971 17.2335 33.0385 16.1946 32.6809 15.2421C32.3232 14.2896 31.6835 13.4688 30.8471 12.8895C30.0107 12.3102 29.0174 11.9998 28 11.9998C26.9826 11.9998 25.9893 12.3102 25.1529 12.8895C24.3165 13.4688 23.6768 14.2896 23.3191 15.2421C22.9615 16.1946 22.9029 17.2335 23.1512 18.2202C23.3996 19.2069 23.943 20.0943 24.709 20.764C22.525 21.845 21 23.974 21 26.5C21 26.7652 21.1054 27.0195 21.2929 27.2071C21.4804 27.3946 21.7348 27.5 22 27.5C22.2652 27.5 22.5196 27.3946 22.7071 27.2071C22.8946 27.0195 23 26.7652 23 26.5C23 24.095 25.155 22 28 22C30.845 22 33 24.095 33 26.5C33 26.7652 33.1054 27.0195 33.2929 27.2071C33.4804 27.3946 33.7348 27.5 34 27.5C34.2652 27.5 34.5196 27.3946 34.7071 27.2071C34.8946 27.0195 35 26.7652 35 26.5C35 23.974 33.475 21.845 31.291 20.764Z" fill="white"/>
<g clip-path="url(#clip0_236_7255)">
<path d="M55.1406 22.0703C55.1406 21.8359 55.1042 21.6276 55.0312 21.4453C54.9635 21.263 54.8411 21.0964 54.6641 20.9453C54.487 20.7943 54.237 20.6484 53.9141 20.5078C53.5964 20.362 53.1901 20.2135 52.6953 20.0625C52.1536 19.8958 51.6536 19.7109 51.1953 19.5078C50.7422 19.2995 50.3464 19.0599 50.0078 18.7891C49.6693 18.513 49.4062 18.1979 49.2188 17.8438C49.0312 17.4844 48.9375 17.0703 48.9375 16.6016C48.9375 16.138 49.0339 15.7161 49.2266 15.3359C49.4245 14.9557 49.7031 14.6276 50.0625 14.3516C50.4271 14.0703 50.8568 13.8542 51.3516 13.7031C51.8464 13.5469 52.3932 13.4688 52.9922 13.4688C53.8359 13.4688 54.5625 13.625 55.1719 13.9375C55.7865 14.25 56.2578 14.6693 56.5859 15.1953C56.9193 15.7214 57.0859 16.3021 57.0859 16.9375H55.1406C55.1406 16.5625 55.0599 16.2318 54.8984 15.9453C54.7422 15.6536 54.5026 15.4245 54.1797 15.2578C53.862 15.0911 53.4583 15.0078 52.9688 15.0078C52.5052 15.0078 52.1198 15.0781 51.8125 15.2188C51.5052 15.3594 51.276 15.5495 51.125 15.7891C50.974 16.0286 50.8984 16.2995 50.8984 16.6016C50.8984 16.8151 50.9479 17.0104 51.0469 17.1875C51.1458 17.3594 51.2969 17.5208 51.5 17.6719C51.7031 17.8177 51.9583 17.9557 52.2656 18.0859C52.5729 18.2161 52.9349 18.3411 53.3516 18.4609C53.9818 18.6484 54.5312 18.8568 55 19.0859C55.4688 19.3099 55.8594 19.5651 56.1719 19.8516C56.4844 20.138 56.7188 20.4635 56.875 20.8281C57.0312 21.1875 57.1094 21.5964 57.1094 22.0547C57.1094 22.5339 57.013 22.9661 56.8203 23.3516C56.6276 23.7318 56.3516 24.0573 55.9922 24.3281C55.638 24.5938 55.2109 24.7995 54.7109 24.9453C54.2161 25.0859 53.6641 25.1562 53.0547 25.1562C52.5078 25.1562 51.9688 25.0833 51.4375 24.9375C50.9115 24.7917 50.4323 24.5703 50 24.2734C49.5677 23.9714 49.224 23.5964 48.9688 23.1484C48.7135 22.6953 48.5859 22.1667 48.5859 21.5625H50.5469C50.5469 21.9323 50.6094 22.2474 50.7344 22.5078C50.8646 22.7682 51.0443 22.9818 51.2734 23.1484C51.5026 23.3099 51.7682 23.4297 52.0703 23.5078C52.3776 23.5859 52.7057 23.625 53.0547 23.625C53.513 23.625 53.8958 23.5599 54.2031 23.4297C54.5156 23.2995 54.75 23.1172 54.9062 22.8828C55.0625 22.6484 55.1406 22.3776 55.1406 22.0703ZM60.7719 16.5469V25H58.8813V16.5469H60.7719ZM58.7563 14.3281C58.7563 14.0417 58.85 13.8047 59.0375 13.6172C59.2302 13.4245 59.4958 13.3281 59.8344 13.3281C60.1677 13.3281 60.4307 13.4245 60.6234 13.6172C60.8161 13.8047 60.9125 14.0417 60.9125 14.3281C60.9125 14.6094 60.8161 14.8438 60.6234 15.0312C60.4307 15.2188 60.1677 15.3125 59.8344 15.3125C59.4958 15.3125 59.2302 15.2188 59.0375 15.0312C58.85 14.8438 58.7563 14.6094 58.7563 14.3281ZM68.3484 16.5469H70.0594V24.7656C70.0594 25.526 69.8979 26.1719 69.575 26.7031C69.2521 27.2344 68.8016 27.638 68.2234 27.9141C67.6453 28.1953 66.976 28.3359 66.2156 28.3359C65.8927 28.3359 65.5333 28.2891 65.1375 28.1953C64.7469 28.1016 64.3667 27.9505 63.9969 27.7422C63.6323 27.5391 63.3276 27.2708 63.0828 26.9375L63.9656 25.8281C64.2677 26.1875 64.601 26.4505 64.9656 26.6172C65.3302 26.7839 65.713 26.8672 66.1141 26.8672C66.5464 26.8672 66.9135 26.7865 67.2156 26.625C67.5229 26.4688 67.7599 26.237 67.9266 25.9297C68.0932 25.6224 68.1766 25.2474 68.1766 24.8047V18.4609L68.3484 16.5469ZM62.6062 20.8672V20.7031C62.6062 20.0625 62.6844 19.4792 62.8406 18.9531C62.9969 18.4219 63.2208 17.9661 63.5125 17.5859C63.8042 17.2005 64.1583 16.9062 64.575 16.7031C64.9917 16.4948 65.463 16.3906 65.9891 16.3906C66.5359 16.3906 67.0021 16.4896 67.3875 16.6875C67.7781 16.8854 68.1036 17.1693 68.3641 17.5391C68.6245 17.9036 68.8276 18.3411 68.9734 18.8516C69.1245 19.3568 69.2365 19.9193 69.3094 20.5391V21.0625C69.2417 21.6667 69.1271 22.2188 68.9656 22.7188C68.8042 23.2188 68.5906 23.651 68.325 24.0156C68.0594 24.3802 67.7312 24.6615 67.3406 24.8594C66.9552 25.0573 66.4995 25.1562 65.9734 25.1562C65.4578 25.1562 64.9917 25.0495 64.575 24.8359C64.1635 24.6224 63.8094 24.3229 63.5125 23.9375C63.2208 23.5521 62.9969 23.099 62.8406 22.5781C62.6844 22.0521 62.6062 21.4818 62.6062 20.8672ZM64.4891 20.7031V20.8672C64.4891 21.2526 64.5255 21.612 64.5984 21.9453C64.6766 22.2786 64.7937 22.5729 64.95 22.8281C65.1115 23.0781 65.3146 23.276 65.5594 23.4219C65.8094 23.5625 66.1036 23.6328 66.4422 23.6328C66.8849 23.6328 67.2469 23.5391 67.5281 23.3516C67.8146 23.1641 68.0333 22.9115 68.1844 22.5938C68.3406 22.2708 68.45 21.9115 68.5125 21.5156V20.1016C68.4812 19.7943 68.4161 19.5078 68.3172 19.2422C68.2234 18.9766 68.0958 18.7448 67.9344 18.5469C67.7729 18.3438 67.5698 18.1875 67.325 18.0781C67.0802 17.9635 66.7911 17.9062 66.4578 17.9062C66.1193 17.9062 65.825 17.9792 65.575 18.125C65.325 18.2708 65.1193 18.4714 64.9578 18.7266C64.8016 18.9818 64.6844 19.2786 64.6062 19.6172C64.5281 19.9557 64.4891 20.3177 64.4891 20.7031ZM73.9797 18.3516V25H72.0969V16.5469H73.8703L73.9797 18.3516ZM73.6437 20.4609L73.0344 20.4531C73.0396 19.8542 73.1229 19.3047 73.2844 18.8047C73.451 18.3047 73.6802 17.875 73.9719 17.5156C74.2687 17.1562 74.6229 16.8802 75.0344 16.6875C75.4458 16.4896 75.9042 16.3906 76.4094 16.3906C76.8156 16.3906 77.1828 16.4479 77.5109 16.5625C77.8443 16.6719 78.1281 16.8516 78.3625 17.1016C78.6021 17.3516 78.7844 17.6771 78.9094 18.0781C79.0344 18.474 79.0969 18.9609 79.0969 19.5391V25H77.2062V19.5312C77.2062 19.125 77.1464 18.8047 77.0266 18.5703C76.912 18.3307 76.7427 18.1615 76.5187 18.0625C76.3 17.9583 76.0266 17.9062 75.6984 17.9062C75.3755 17.9062 75.0865 17.974 74.8312 18.1094C74.576 18.2448 74.3599 18.4297 74.1828 18.6641C74.0109 18.8984 73.8781 19.1693 73.7844 19.4766C73.6906 19.7839 73.6437 20.112 73.6437 20.4609ZM87.2188 16.5469V25H85.3281V16.5469H87.2188ZM85.2031 14.3281C85.2031 14.0417 85.2969 13.8047 85.4844 13.6172C85.6771 13.4245 85.9427 13.3281 86.2812 13.3281C86.6146 13.3281 86.8776 13.4245 87.0703 13.6172C87.263 13.8047 87.3594 14.0417 87.3594 14.3281C87.3594 14.6094 87.263 14.8438 87.0703 15.0312C86.8776 15.2188 86.6146 15.3125 86.2812 15.3125C85.9427 15.3125 85.6771 15.2188 85.4844 15.0312C85.2969 14.8438 85.2031 14.6094 85.2031 14.3281ZM91.2484 18.3516V25H89.3656V16.5469H91.1391L91.2484 18.3516ZM90.9125 20.4609L90.3031 20.4531C90.3083 19.8542 90.3917 19.3047 90.5531 18.8047C90.7198 18.3047 90.949 17.875 91.2406 17.5156C91.5375 17.1562 91.8917 16.8802 92.3031 16.6875C92.7146 16.4896 93.1729 16.3906 93.6781 16.3906C94.0844 16.3906 94.4516 16.4479 94.7797 16.5625C95.113 16.6719 95.3969 16.8516 95.6312 17.1016C95.8708 17.3516 96.0531 17.6771 96.1781 18.0781C96.3031 18.474 96.3656 18.9609 96.3656 19.5391V25H94.475V19.5312C94.475 19.125 94.4151 18.8047 94.2953 18.5703C94.1807 18.3307 94.0115 18.1615 93.7875 18.0625C93.5687 17.9583 93.2953 17.9062 92.9672 17.9062C92.6443 17.9062 92.3552 17.974 92.1 18.1094C91.8448 18.2448 91.6286 18.4297 91.4516 18.6641C91.2797 18.8984 91.1469 19.1693 91.0531 19.4766C90.9594 19.7839 90.9125 20.112 90.9125 20.4609Z" fill="white"/>
</g>
<rect x="0.25" y="0.25" width="113.5" height="39.5" rx="3.75" stroke="#CECECE" stroke-width="0.5"/>
<defs>
<clipPath id="clip0_236_7255">
<rect width="50" height="20" fill="white" transform="translate(48 10)"/>
</clipPath>
</defs>
</svg>
