<svg width="7" height="10" viewBox="0 0 7 10" fill="none" xmlns="http://www.w3.org/2000/svg">
<path d="M2.09912 4.04883H2.97217C3.28076 4.04883 3.53467 3.99609 3.73389 3.89062C3.93701 3.78125 4.0874 3.63281 4.18506 3.44531C4.28662 3.25391 4.3374 3.0332 4.3374 2.7832C4.3374 2.53711 4.29248 2.32422 4.20264 2.14453C4.11279 1.96094 3.97607 1.82031 3.79248 1.72266C3.61279 1.62109 3.38232 1.57031 3.10107 1.57031C2.87451 1.57031 2.66553 1.61523 2.47412 1.70508C2.28662 1.79492 2.13623 1.92383 2.02295 2.0918C1.91357 2.25586 1.85889 2.45312 1.85889 2.68359H0.306152C0.306152 2.22266 0.427246 1.81836 0.669434 1.4707C0.915527 1.11914 1.24756 0.84375 1.66553 0.644531C2.0835 0.445312 2.55029 0.345703 3.06592 0.345703C3.62842 0.345703 4.12061 0.439453 4.54248 0.626953C4.96826 0.810547 5.29834 1.08203 5.53271 1.44141C5.771 1.80078 5.89014 2.24609 5.89014 2.77734C5.89014 3.03125 5.82959 3.28516 5.7085 3.53906C5.59131 3.78906 5.41748 4.01562 5.18701 4.21875C4.96045 4.41797 4.68115 4.58008 4.34912 4.70508C4.021 4.82617 3.64404 4.88672 3.21826 4.88672H2.09912V4.04883ZM2.09912 5.24414V4.41797H3.21826C3.69873 4.41797 4.11475 4.47461 4.46631 4.58789C4.82178 4.69727 5.11475 4.85352 5.34521 5.05664C5.57568 5.25586 5.74561 5.48828 5.85498 5.75391C5.96826 6.01953 6.0249 6.30469 6.0249 6.60938C6.0249 7.00781 5.95068 7.36328 5.80225 7.67578C5.65381 7.98438 5.44482 8.24609 5.17529 8.46094C4.90967 8.67578 4.59717 8.83984 4.23779 8.95312C3.87842 9.0625 3.48975 9.11719 3.07178 9.11719C2.7085 9.11719 2.35498 9.06836 2.01123 8.9707C1.67139 8.86914 1.36475 8.71875 1.09131 8.51953C0.817871 8.31641 0.601074 8.0625 0.440918 7.75781C0.280762 7.44922 0.200684 7.0918 0.200684 6.68555H1.75342C1.75342 6.91992 1.81006 7.12891 1.92334 7.3125C2.04053 7.49609 2.20068 7.64062 2.40381 7.74609C2.61084 7.84766 2.84326 7.89844 3.10107 7.89844C3.38623 7.89844 3.63037 7.84766 3.8335 7.74609C4.04053 7.64062 4.19873 7.49219 4.30811 7.30078C4.41748 7.10547 4.47217 6.87305 4.47217 6.60352C4.47217 6.2832 4.41162 6.02344 4.29053 5.82422C4.16943 5.625 3.99561 5.47852 3.76904 5.38477C3.54639 5.29102 3.28076 5.24414 2.97217 5.24414H2.09912Z" fill="white"/>
</svg>
