<svg width="24" height="8" viewBox="0 0 24 8" fill="none" xmlns="http://www.w3.org/2000/svg">
<path d="M9.112 0.138L5.97 7.634H3.92L2.374 1.651C2.28 1.283 2.199 1.148 1.913 0.993C1.447 0.74 0.677 0.503 0 0.355L0.046 0.138H3.346C3.56165 0.137784 3.77027 0.214665 3.93421 0.354765C4.09815 0.494865 4.2066 0.688954 4.24 0.902L5.057 5.24L7.075 0.138H9.112ZM17.145 5.187C17.153 3.208 14.409 3.099 14.428 2.215C14.434 1.946 14.69 1.66 15.25 1.587C15.9063 1.52467 16.5672 1.64076 17.163 1.923L17.503 0.333C16.923 0.114945 16.3087 0.00217662 15.689 0C13.772 0 12.423 1.02 12.411 2.479C12.399 3.558 13.374 4.159 14.109 4.519C14.865 4.886 15.119 5.122 15.115 5.45C15.11 5.954 14.513 6.175 13.955 6.184C12.98 6.199 12.415 5.921 11.963 5.711L11.612 7.353C12.065 7.561 12.901 7.743 13.768 7.751C15.805 7.751 17.138 6.745 17.145 5.187ZM22.206 7.634H24L22.435 0.138H20.779C20.6021 0.136361 20.4287 0.187919 20.2814 0.285989C20.1341 0.384059 20.0197 0.524116 19.953 0.688001L17.044 7.634H19.08L19.485 6.514H21.973L22.206 7.634ZM20.043 4.978L21.063 2.163L21.651 4.978H20.043ZM11.883 0.138L10.28 7.634H8.34L9.945 0.138H11.883Z" fill="#1A1F71"/>
</svg>
