<?xml version="1.0" standalone="no"?>
<!DOCTYPE svg PUBLIC "-//W3C//DTD SVG 20010904//EN"
 "http://www.w3.org/TR/2001/REC-SVG-20010904/DTD/svg10.dtd">
<svg version="1.0" xmlns="http://www.w3.org/2000/svg"
 width="512.000000pt" height="512.000000pt" viewBox="0 0 512.000000 512.000000"
 preserveAspectRatio="xMidYMid meet">

<g transform="translate(0.000000,512.000000) scale(0.100000,-0.100000)"
fill="#000000" stroke="none">
<path d="M2375 5110 c-796 -63 -1500 -473 -1939 -1130 -224 -334 -353 -678
-412 -1095 -25 -178 -23 -497 5 -680 63 -419 205 -779 440 -1115 l66 -95 5
-420 c6 -479 4 -471 92 -531 88 -59 195 -50 269 22 48 47 52 60 89 268 16 93
32 171 34 173 2 3 46 -24 98 -59 333 -228 703 -368 1118 -424 162 -22 471 -23
635 -1 412 53 812 206 1138 434 43 30 81 53 83 50 2 -2 18 -81 34 -175 36
-202 40 -216 88 -265 71 -73 182 -83 270 -23 88 60 87 52 90 529 l3 419 63 89
c416 578 567 1332 410 2039 -232 1043 -1109 1844 -2164 1975 -150 18 -389 25
-515 15z m307 -640 c36 -11 83 -33 106 -50 l42 -30 366 0 367 0 -6 -45 c-17
-123 -129 -235 -249 -251 -42 -6 -48 -10 -48 -30 0 -50 -43 -138 -90 -184 -64
-65 -134 -90 -250 -90 -83 0 -92 -2 -135 -31 -135 -91 -322 -90 -453 1 -40 28
-49 30 -132 30 -116 0 -186 25 -250 90 -47 46 -90 134 -90 184 0 20 -6 24 -47
30 -58 8 -140 53 -178 98 -35 41 -62 101 -71 156 l-7 42 366 0 365 0 52 35
c99 66 221 83 342 45z m1283 -1233 c119 -21 281 -61 333 -82 86 -36 143 -94
171 -175 19 -54 15 -803 -4 -887 -70 -300 -293 -503 -665 -606 -61 -16 -104
-20 -230 -20 -140 0 -164 2 -243 26 -216 66 -394 196 -516 376 -67 98 -143
141 -251 141 -106 0 -186 -45 -252 -143 -89 -133 -250 -268 -394 -332 -292
-129 -661 -87 -949 108 -159 108 -265 257 -311 440 -21 79 -33 747 -15 840 28
154 103 218 316 271 90 23 255 50 360 59 22 2 605 3 1295 2 1140 -1 1264 -3
1355 -18z"/>
<path d="M1280 3099 c-115 -12 -232 -35 -337 -65 -101 -29 -139 -59 -153 -120
-13 -52 -12 -495 0 -610 20 -193 84 -328 220 -465 163 -165 352 -240 570 -226
123 8 195 27 305 82 196 96 332 259 396 475 20 69 23 100 27 389 2 172 1 329
-3 348 -12 63 -54 97 -157 126 -237 67 -595 94 -868 66z m528 -155 c130 -15
275 -44 325 -63 l29 -11 -4 -303 c-4 -295 -5 -304 -31 -382 -34 -102 -114
-223 -186 -282 -135 -111 -336 -164 -502 -133 -57 11 -59 11 -159 58 -160 76
-285 235 -325 414 -13 59 -15 125 -13 352 l3 279 55 18 c180 60 554 85 808 53z"/>
<path d="M3355 3104 c-192 -20 -412 -66 -476 -100 -17 -8 -39 -29 -49 -47 -19
-30 -20 -52 -20 -352 0 -343 6 -397 53 -515 41 -101 88 -171 172 -255 214
-214 497 -278 788 -179 107 36 203 98 287 183 80 82 127 152 167 251 47 118
53 172 53 515 0 408 10 386 -207 441 -149 37 -304 55 -523 59 -113 2 -223 1
-245 -1z m470 -159 c133 -16 143 -18 268 -47 l88 -20 -3 -317 c-4 -293 -6
-320 -26 -374 -76 -205 -202 -333 -387 -394 -67 -22 -99 -26 -195 -27 -124 0
-154 7 -280 68 -89 42 -214 167 -256 256 -64 133 -67 148 -72 474 -2 164 0
302 5 306 13 14 195 58 264 65 35 3 96 10 134 14 116 14 333 12 460 -4z"/>
</g>
</svg>
